<svg width="1306" height="892" viewBox="0 0 1306 892" fill="none" xmlns="http://www.w3.org/2000/svg">
<circle opacity="0.6" cx="616.286" cy="12" r="12" fill="url(#paint0_angular_68_3422)"/>
<circle opacity="0.5" cx="624.286" cy="653" r="17" fill="url(#paint1_angular_68_3422)"/>
<circle opacity="0.2" cx="1274.86" cy="780.95" r="19" transform="rotate(-105 1274.86 780.95)" fill="url(#paint2_angular_68_3422)"/>
<path fill-rule="evenodd" clip-rule="evenodd" d="M1138.62 579.064L1130.4 609.736L1099.73 617.955L1077.27 595.501L1085.49 564.829L1116.16 556.61L1138.62 579.064Z" fill="url(#paint3_angular_68_3422)" fill-opacity="0.5"/>
<path fill-rule="evenodd" clip-rule="evenodd" d="M749.889 77.4341L755.866 55.127L778.173 49.1498L794.503 65.4798L788.526 87.7869L766.218 93.764L749.889 77.4341Z" fill="url(#paint4_angular_68_3422)" fill-opacity="0.5"/>
<path fill-rule="evenodd" clip-rule="evenodd" d="M1283.73 93.2617L1297.12 96.848L1300.7 110.232L1290.91 120.03L1277.52 116.444L1273.94 103.06L1283.73 93.2617Z" fill="url(#paint5_angular_68_3422)" fill-opacity="0.5"/>
<path fill-rule="evenodd" clip-rule="evenodd" d="M10.3923 854.646L24.2487 854.646L31.1769 866.646L24.2487 878.646L10.3923 878.646L3.46408 866.646L10.3923 854.646Z" fill="url(#paint6_angular_68_3422)" fill-opacity="0.5"/>
<path fill-rule="evenodd" clip-rule="evenodd" d="M302.865 73.0236L324.503 94.6608L316.583 124.218L287.026 132.137L265.389 110.5L273.308 80.9434L302.865 73.0236Z" fill="url(#paint7_angular_68_3422)" fill-opacity="0.3"/>
<g opacity="0.7">
<path d="M101.147 684.043C100.609 683.919 100.072 684.255 99.9479 684.793C99.8236 685.331 100.159 685.868 100.697 685.992L101.147 684.043ZM350.565 742.652L342.121 734.777L339.523 746.028L350.565 742.652ZM102.648 686.442C103.186 686.567 103.723 686.231 103.847 685.693C103.971 685.155 103.636 684.618 103.098 684.494L102.648 686.442ZM106.998 685.394C106.46 685.27 105.923 685.605 105.799 686.144C105.675 686.682 106.01 687.219 106.548 687.343L106.998 685.394ZM110.449 688.243C110.987 688.368 111.524 688.032 111.648 687.494C111.773 686.956 111.437 686.419 110.899 686.295L110.449 688.243ZM114.8 687.195C114.261 687.071 113.724 687.407 113.6 687.945C113.476 688.483 113.812 689.02 114.35 689.144L114.8 687.195ZM118.25 690.045C118.788 690.169 119.325 689.833 119.45 689.295C119.574 688.757 119.238 688.22 118.7 688.096L118.25 690.045ZM122.601 688.996C122.063 688.872 121.526 689.208 121.402 689.746C121.277 690.284 121.613 690.821 122.151 690.945L122.601 688.996ZM126.052 691.846C126.59 691.97 127.127 691.634 127.251 691.096C127.375 690.558 127.04 690.021 126.502 689.897L126.052 691.846ZM130.402 690.797C129.864 690.673 129.327 691.009 129.203 691.547C129.079 692.085 129.414 692.622 129.952 692.746L130.402 690.797ZM133.853 693.647C134.391 693.771 134.928 693.435 135.052 692.897C135.177 692.359 134.841 691.822 134.303 691.698L133.853 693.647ZM138.204 692.599C137.665 692.474 137.129 692.81 137.004 693.348C136.88 693.886 137.216 694.423 137.754 694.547L138.204 692.599ZM141.654 695.448C142.193 695.572 142.729 695.237 142.854 694.698C142.978 694.16 142.642 693.623 142.104 693.499L141.654 695.448ZM146.005 694.4C145.467 694.275 144.93 694.611 144.806 695.149C144.681 695.687 145.017 696.224 145.555 696.348L146.005 694.4ZM149.456 697.249C149.994 697.373 150.531 697.038 150.655 696.499C150.779 695.961 150.444 695.424 149.906 695.3L149.456 697.249ZM153.806 696.201C153.268 696.076 152.731 696.412 152.607 696.95C152.483 697.488 152.818 698.025 153.356 698.149L153.806 696.201ZM157.257 699.05C157.795 699.174 158.332 698.839 158.456 698.301C158.581 697.762 158.245 697.225 157.707 697.101L157.257 699.05ZM161.608 698.002C161.07 697.878 160.533 698.213 160.408 698.751C160.284 699.289 160.62 699.826 161.158 699.951L161.608 698.002ZM165.058 700.851C165.597 700.975 166.134 700.64 166.258 700.102C166.382 699.564 166.046 699.027 165.508 698.902L165.058 700.851ZM169.409 699.803C168.871 699.679 168.334 700.014 168.21 700.552C168.085 701.09 168.421 701.627 168.959 701.752L169.409 699.803ZM172.86 702.652C173.398 702.776 173.935 702.441 174.059 701.903C174.183 701.365 173.848 700.828 173.31 700.703L172.86 702.652ZM177.21 701.604C176.672 701.48 176.135 701.815 176.011 702.353C175.887 702.891 176.222 703.428 176.76 703.553L177.21 701.604ZM180.661 704.453C181.199 704.577 181.736 704.242 181.86 703.704C181.985 703.166 181.649 702.629 181.111 702.504L180.661 704.453ZM185.012 703.405C184.474 703.281 183.937 703.616 183.812 704.154C183.688 704.693 184.024 705.23 184.562 705.354L185.012 703.405ZM188.462 706.254C189.001 706.379 189.538 706.043 189.662 705.505C189.786 704.967 189.451 704.43 188.912 704.306L188.462 706.254ZM192.813 705.206C192.275 705.082 191.738 705.417 191.614 705.956C191.49 706.494 191.825 707.031 192.363 707.155L192.813 705.206ZM196.264 708.055C196.802 708.18 197.339 707.844 197.463 707.306C197.587 706.768 197.252 706.231 196.714 706.107L196.264 708.055ZM200.614 707.007C200.076 706.883 199.539 707.218 199.415 707.757C199.291 708.295 199.626 708.832 200.165 708.956L200.614 707.007ZM204.065 709.856C204.603 709.981 205.14 709.645 205.265 709.107C205.389 708.569 205.053 708.032 204.515 707.908L204.065 709.856ZM208.416 708.808C207.878 708.684 207.341 709.02 207.216 709.558C207.092 710.096 207.428 710.633 207.966 710.757L208.416 708.808ZM211.867 711.658C212.405 711.782 212.942 711.446 213.066 710.908C213.19 710.37 212.855 709.833 212.316 709.709L211.867 711.658ZM216.217 710.609C215.679 710.485 215.142 710.821 215.018 711.359C214.894 711.897 215.229 712.434 215.767 712.558L216.217 710.609ZM219.668 713.459C220.206 713.583 220.743 713.247 220.867 712.709C220.991 712.171 220.656 711.634 220.118 711.51L219.668 713.459ZM224.018 712.41C223.48 712.286 222.943 712.622 222.819 713.16C222.695 713.698 223.03 714.235 223.569 714.359L224.018 712.41ZM227.469 715.26C228.007 715.384 228.544 715.048 228.669 714.51C228.793 713.972 228.457 713.435 227.919 713.311L227.469 715.26ZM231.82 714.212C231.282 714.087 230.745 714.423 230.621 714.961C230.496 715.499 230.832 716.036 231.37 716.16L231.82 714.212ZM235.271 717.061C235.809 717.185 236.346 716.85 236.47 716.311C236.594 715.773 236.259 715.236 235.721 715.112L235.271 717.061ZM239.621 716.013C239.083 715.888 238.546 716.224 238.422 716.762C238.298 717.3 238.633 717.837 239.171 717.961L239.621 716.013ZM243.072 718.862C243.61 718.986 244.147 718.651 244.271 718.112C244.396 717.574 244.06 717.037 243.522 716.913L243.072 718.862ZM247.423 717.814C246.884 717.689 246.347 718.025 246.223 718.563C246.099 719.101 246.435 719.638 246.973 719.762L247.423 717.814ZM250.873 720.663C251.411 720.787 251.948 720.452 252.073 719.914C252.197 719.375 251.861 718.838 251.323 718.714L250.873 720.663ZM255.224 719.615C254.686 719.491 254.149 719.826 254.025 720.364C253.9 720.902 254.236 721.439 254.774 721.564L255.224 719.615ZM258.675 722.464C259.213 722.588 259.75 722.253 259.874 721.715C259.998 721.177 259.663 720.64 259.125 720.515L258.675 722.464ZM263.025 721.416C262.487 721.292 261.95 721.627 261.826 722.165C261.702 722.703 262.037 723.24 262.575 723.365L263.025 721.416ZM266.476 724.265C267.014 724.389 267.551 724.054 267.675 723.516C267.8 722.978 267.464 722.441 266.926 722.316L266.476 724.265ZM270.827 723.217C270.288 723.093 269.752 723.428 269.627 723.966C269.503 724.505 269.839 725.041 270.377 725.166L270.827 723.217ZM274.277 726.066C274.816 726.19 275.352 725.855 275.477 725.317C275.601 724.779 275.265 724.242 274.727 724.117L274.277 726.066ZM278.628 725.018C278.09 724.894 277.553 725.229 277.429 725.767C277.304 726.306 277.64 726.843 278.178 726.967L278.628 725.018ZM282.079 727.867C282.617 727.992 283.154 727.656 283.278 727.118C283.402 726.58 283.067 726.043 282.529 725.919L282.079 727.867ZM286.429 726.819C285.891 726.695 285.354 727.03 285.23 727.569C285.106 728.107 285.441 728.644 285.979 728.768L286.429 726.819ZM289.88 729.668C290.418 729.793 290.955 729.457 291.079 728.919C291.204 728.381 290.868 727.844 290.33 727.72L289.88 729.668ZM294.231 728.62C293.693 728.496 293.156 728.831 293.031 729.37C292.907 729.908 293.243 730.445 293.781 730.569L294.231 728.62ZM297.681 731.469C298.22 731.594 298.757 731.258 298.881 730.72C299.005 730.182 298.669 729.645 298.131 729.521L297.681 731.469ZM302.032 730.421C301.494 730.297 300.957 730.633 300.833 731.171C300.708 731.709 301.044 732.246 301.582 732.37L302.032 730.421ZM305.483 733.271C306.021 733.395 306.558 733.059 306.682 732.521C306.806 731.983 306.471 731.446 305.933 731.322L305.483 733.271ZM309.833 732.222C309.295 732.098 308.758 732.434 308.634 732.972C308.51 733.51 308.845 734.047 309.383 734.171L309.833 732.222ZM313.284 735.072C313.822 735.196 314.359 734.86 314.483 734.322C314.608 733.784 314.272 733.247 313.734 733.123L313.284 735.072ZM317.635 734.023C317.097 733.899 316.56 734.235 316.435 734.773C316.311 735.311 316.647 735.848 317.185 735.972L317.635 734.023ZM321.086 736.873C321.624 736.997 322.161 736.661 322.285 736.123C322.409 735.585 322.074 735.048 321.535 734.924L321.086 736.873ZM325.436 735.825C324.898 735.7 324.361 736.036 324.237 736.574C324.113 737.112 324.448 737.649 324.986 737.773L325.436 735.825ZM328.887 738.674C329.425 738.798 329.962 738.463 330.086 737.924C330.21 737.386 329.875 736.849 329.337 736.725L328.887 738.674ZM333.237 737.626C332.699 737.501 332.162 737.837 332.038 738.375C331.914 738.913 332.249 739.45 332.788 739.574L333.237 737.626ZM336.688 740.475C337.226 740.599 337.763 740.264 337.888 739.725C338.012 739.187 337.676 738.65 337.138 738.526L336.688 740.475ZM341.039 739.427C340.501 739.302 339.964 739.638 339.839 740.176C339.715 740.714 340.051 741.251 340.589 741.375L341.039 739.427ZM344.49 742.276C345.028 742.4 345.565 742.065 345.689 741.527C345.813 740.988 345.478 740.451 344.939 740.327L344.49 742.276ZM348.84 741.228C348.302 741.104 347.765 741.439 347.641 741.977C347.517 742.515 347.852 743.052 348.39 743.177L348.84 741.228ZM100.697 685.992L102.648 686.442L103.098 684.494L101.147 684.043L100.697 685.992ZM106.548 687.343L110.449 688.243L110.899 686.295L106.998 685.394L106.548 687.343ZM114.35 689.144L118.25 690.045L118.7 688.096L114.8 687.195L114.35 689.144ZM122.151 690.945L126.052 691.846L126.502 689.897L122.601 688.996L122.151 690.945ZM129.952 692.746L133.853 693.647L134.303 691.698L130.402 690.797L129.952 692.746ZM137.754 694.547L141.654 695.448L142.104 693.499L138.204 692.599L137.754 694.547ZM145.555 696.348L149.456 697.249L149.906 695.3L146.005 694.4L145.555 696.348ZM153.356 698.149L157.257 699.05L157.707 697.101L153.806 696.201L153.356 698.149ZM161.158 699.951L165.058 700.851L165.508 698.902L161.608 698.002L161.158 699.951ZM168.959 701.752L172.86 702.652L173.31 700.703L169.409 699.803L168.959 701.752ZM176.76 703.553L180.661 704.453L181.111 702.504L177.21 701.604L176.76 703.553ZM184.562 705.354L188.462 706.254L188.912 704.306L185.012 703.405L184.562 705.354ZM192.363 707.155L196.264 708.055L196.714 706.107L192.813 705.206L192.363 707.155ZM200.165 708.956L204.065 709.856L204.515 707.908L200.614 707.007L200.165 708.956ZM207.966 710.757L211.867 711.658L212.316 709.709L208.416 708.808L207.966 710.757ZM215.767 712.558L219.668 713.459L220.118 711.51L216.217 710.609L215.767 712.558ZM223.569 714.359L227.469 715.26L227.919 713.311L224.018 712.41L223.569 714.359ZM231.37 716.16L235.271 717.061L235.721 715.112L231.82 714.212L231.37 716.16ZM239.171 717.961L243.072 718.862L243.522 716.913L239.621 716.013L239.171 717.961ZM246.973 719.762L250.873 720.663L251.323 718.714L247.423 717.814L246.973 719.762ZM254.774 721.564L258.675 722.464L259.125 720.515L255.224 719.615L254.774 721.564ZM262.575 723.365L266.476 724.265L266.926 722.316L263.025 721.416L262.575 723.365ZM270.377 725.166L274.277 726.066L274.727 724.117L270.827 723.217L270.377 725.166ZM278.178 726.967L282.079 727.867L282.529 725.919L278.628 725.018L278.178 726.967ZM285.979 728.768L289.88 729.668L290.33 727.72L286.429 726.819L285.979 728.768ZM293.781 730.569L297.681 731.469L298.131 729.521L294.231 728.62L293.781 730.569ZM301.582 732.37L305.483 733.271L305.933 731.322L302.032 730.421L301.582 732.37ZM309.383 734.171L313.284 735.072L313.734 733.123L309.833 732.222L309.383 734.171ZM317.185 735.972L321.086 736.873L321.535 734.924L317.635 734.023L317.185 735.972ZM324.986 737.773L328.887 738.674L329.337 736.725L325.436 735.825L324.986 737.773ZM332.788 739.574L336.688 740.475L337.138 738.526L333.237 737.626L332.788 739.574ZM340.589 741.375L344.49 742.276L344.939 740.327L341.039 739.427L340.589 741.375Z" fill="#E2E8F0"/>
<rect x="69.1521" y="632.805" width="54.3023" height="85.1391" rx="6" transform="rotate(13 69.1521 632.805)" fill="white"/>
<rect opacity="0.8" x="69.1521" y="632.805" width="54.3023" height="85.1391" rx="6" transform="rotate(13 69.1521 632.805)" fill="#EDF2F7"/>
<rect x="142.379" y="649.711" width="54.3023" height="85.1391" rx="6" transform="rotate(13 142.379 649.711)" fill="white"/>
<rect opacity="0.7" x="142.379" y="649.711" width="54.3023" height="85.1391" rx="6" transform="rotate(13 142.379 649.711)" fill="#EDF2F7"/>
<rect x="215.605" y="666.616" width="54.3023" height="85.1391" rx="6" transform="rotate(13 215.605 666.616)" fill="white"/>
<rect opacity="0.6" x="215.605" y="666.616" width="54.3023" height="85.1391" rx="6" transform="rotate(13 215.605 666.616)" fill="#EDF2F7"/>
<rect x="288.832" y="683.522" width="54.3023" height="85.1391" rx="6" transform="rotate(13 288.832 683.522)" fill="white"/>
<rect opacity="0.5" x="288.832" y="683.522" width="54.3023" height="85.1391" rx="6" transform="rotate(13 288.832 683.522)" fill="#EDF2F7"/>
</g>
<path fill-rule="evenodd" clip-rule="evenodd" d="M345.821 621.957C343.55 613.427 348.615 604.669 357.141 602.385L454.344 576.339C462.889 574.05 471.67 579.129 473.946 587.677L526.244 784.053C528.516 792.583 523.451 801.341 514.924 803.625L417.722 829.671C409.177 831.96 400.396 826.882 398.119 818.333L345.821 621.957Z" fill="white"/>
<path fill-rule="evenodd" clip-rule="evenodd" d="M353.475 594.419C340.672 597.85 333.074 611.01 336.505 623.813L393.036 834.793C396.467 847.596 409.627 855.194 422.43 851.763L522.64 824.912C535.443 821.481 543.041 808.321 539.61 795.518L483.079 584.539C479.648 571.736 466.488 564.138 453.685 567.568L353.475 594.419ZM357.139 602.385C348.612 604.67 343.547 613.428 345.819 621.957L398.117 818.334C400.393 826.882 409.174 831.96 417.719 829.671L514.922 803.625C523.448 801.341 528.513 792.583 526.242 784.053L473.944 587.677C471.667 579.129 462.886 574.05 454.341 576.34L357.139 602.385Z" fill="#EDF2F7"/>
<rect x="368.886" y="638.322" width="101.634" height="101.634" rx="4" transform="rotate(-15 368.886 638.322)" fill="#F6F9FB"/>
<rect x="399.118" y="769.591" width="105.99" height="23.1671" rx="4" transform="rotate(-15 399.118 769.591)" fill="#718096"/>
<rect x="407.743" y="798.131" width="105.99" height="23.1671" rx="4" transform="rotate(-15 407.743 798.131)" fill="#CBD5E0"/>
<circle opacity="0.6" cx="457.602" cy="765.376" r="23.3307" transform="rotate(-9 457.602 765.376)" fill="#DFFDF9"/>
<circle opacity="0.6" cx="457.375" cy="764.991" r="17.9545" transform="rotate(-9 457.375 764.991)" fill="#C0FBF2"/>
<mask id="path-25-outside-1_68_3422" maskUnits="userSpaceOnUse" x="450.074" y="750.023" width="49.9942" height="47.7819" fill="black">
<rect fill="white" x="450.074" y="750.023" width="49.9942" height="47.7819"/>
<path fill-rule="evenodd" clip-rule="evenodd" d="M483.367 768.157L464.711 766.057L472.473 783.151L476.882 777.082L487.235 784.604L489.31 781.748L478.957 774.226L483.367 768.157Z"/>
</mask>
<path fill-rule="evenodd" clip-rule="evenodd" d="M483.367 768.157L464.711 766.057L472.473 783.151L476.882 777.082L487.235 784.604L489.31 781.748L478.957 774.226L483.367 768.157Z" fill="#4F575D"/>
<path d="M464.711 766.057L465.046 763.076L459.794 762.485L461.979 767.297L464.711 766.057ZM483.367 768.157L485.794 769.92L488.822 765.752L483.702 765.176L483.367 768.157ZM472.473 783.151L469.741 784.391L471.871 789.083L474.9 784.914L472.473 783.151ZM476.882 777.082L478.645 774.655L476.218 772.892L474.455 775.319L476.882 777.082ZM487.235 784.604L485.472 787.031L487.899 788.794L489.662 786.367L487.235 784.604ZM489.31 781.748L491.737 783.511L493.501 781.084L491.074 779.321L489.31 781.748ZM478.957 774.226L476.53 772.463L474.767 774.89L477.194 776.653L478.957 774.226ZM464.375 769.038L483.031 771.138L483.702 765.176L465.046 763.076L464.375 769.038ZM475.204 781.911L467.442 764.817L461.979 767.297L469.741 784.391L475.204 781.911ZM474.455 775.319L470.046 781.388L474.9 784.914L479.309 778.845L474.455 775.319ZM488.999 782.177L478.645 774.655L475.119 779.509L485.472 787.031L488.999 782.177ZM486.883 779.984L484.808 782.84L489.662 786.367L491.737 783.511L486.883 779.984ZM477.194 776.653L487.547 784.175L491.074 779.321L480.721 771.799L477.194 776.653ZM480.939 766.394L476.53 772.463L481.384 775.989L485.794 769.92L480.939 766.394Z" fill="white" mask="url(#path-25-outside-1_68_3422)"/>
<path d="M345.321 620.037C343.32 612.568 347.752 604.891 355.221 602.89L456.147 575.847C463.616 573.846 471.292 578.278 473.294 585.747L475.666 594.601L347.694 628.891L345.321 620.037Z" fill="#CBD5E0"/>
<path fill-rule="evenodd" clip-rule="evenodd" d="M586.522 546.624C595.358 531.319 614.929 526.075 630.235 534.912L689.27 568.996C704.575 577.832 709.819 597.403 700.983 612.709L609.783 770.671C600.947 785.976 581.376 791.22 566.071 782.384L507.035 748.3C491.73 739.463 486.486 719.892 495.322 704.587L586.522 546.624Z" fill="white"/>
<path fill-rule="evenodd" clip-rule="evenodd" d="M586.645 546.61C595.481 531.305 615.052 526.061 630.357 534.897L689.393 568.981C704.698 577.818 709.942 597.389 701.106 612.694L609.906 770.656C601.07 785.962 581.499 791.206 566.193 782.369L507.158 748.285C491.853 739.449 486.609 719.878 495.445 704.572L586.645 546.61Z" fill="white"/>
<path fill-rule="evenodd" clip-rule="evenodd" d="M586.645 546.61C595.481 531.305 615.052 526.061 630.357 534.897L689.393 568.981C704.698 577.818 709.942 597.389 701.106 612.694L609.906 770.656C601.07 785.962 581.499 791.206 566.193 782.369L507.158 748.285C491.853 739.449 486.609 719.878 495.445 704.572L586.645 546.61Z" fill="url(#paint8_angular_68_3422)" fill-opacity="0.9"/>
<path d="M594.975 708.965H581.333V669.068H577.461V708.965H563.921C563.136 708.965 562.478 709.595 562.478 710.402V711.462H596.291V710.276C596.317 709.57 595.709 708.965 594.975 708.965Z" fill="white"/>
<path d="M556.1 671.215C556.1 673.637 558.074 675.604 560.504 675.604H596.873C599.303 675.604 601.277 673.637 601.277 671.215V667.231C601.277 664.81 599.303 662.843 596.873 662.843H560.504C558.074 662.843 556.1 664.81 556.1 667.231V671.215Z" fill="url(#paint9_linear_68_3422)"/>
<path d="M600.905 706.919C600.905 706.919 611.887 714.822 609.973 720.133C609.973 720.133 597.959 714.948 596.523 710.87C595.062 706.793 596.775 704.981 596.775 704.981L600.905 706.919Z" fill="url(#paint10_linear_68_3422)"/>
<path d="M599.268 700.274L597.48 705.459C597.203 706.239 597.48 707.12 598.185 707.573C598.538 707.8 599.016 708.001 599.671 708.152C600.603 708.354 601.56 707.926 601.989 707.095L604.129 703.068L599.268 700.274Z" fill="url(#paint11_linear_68_3422)"/>
<path d="M581.813 653.636C581.813 653.636 604.356 657.537 614.028 666.472C623.7 675.407 605.162 703.873 605.162 703.873C605.162 703.873 602.114 703.848 598.437 700.702C598.437 700.702 609.419 679.283 599.948 673.041C589.294 666.019 577.028 664.433 577.028 664.433L581.612 654.341L581.813 653.636Z" fill="url(#paint12_linear_68_3422)"/>
<path d="M608.084 717.188C605.666 716.08 598.84 711.298 597.681 711.072C596.523 710.87 594.533 712.204 594.533 712.204C594.533 712.204 594.054 713.085 594.558 714.596C596.17 716.534 599.722 720.233 604.507 721.618C608.034 722.624 610.502 721.693 612.013 720.586C611.182 719.302 609.671 717.918 608.084 717.188Z" fill="url(#paint13_linear_68_3422)"/>
<path d="M604.507 721.618C599.722 720.233 596.17 716.533 594.558 714.595C594.911 715.627 595.717 716.961 597.455 718.497C601.737 722.348 609.948 723.732 611.686 723.48C613.096 723.254 612.945 721.97 612.038 720.561C610.502 721.693 608.034 722.65 604.507 721.618Z" fill="url(#paint14_linear_68_3422)"/>
<path d="M592.493 708.857C592.518 709.511 593.878 711.802 594.684 713.085C595.062 713.689 595.717 714.067 596.447 714.067C596.901 714.067 597.43 714.016 597.908 713.891C598.613 713.689 599.016 712.934 598.815 712.229L597.253 706.944L592.493 708.857Z" fill="url(#paint15_linear_68_3422)"/>
<path d="M560.102 646.865C560.102 646.865 555.089 660.23 560.102 664.308C565.114 668.385 577.053 672.941 579.723 681.045C582.393 689.149 586.926 704.88 592.971 710.468C592.971 710.468 597.228 710.065 598.815 708.353C598.815 708.353 595.364 684.846 593.097 678.83C591.133 673.62 588.236 666.069 582.67 661.866C581.083 660.658 581.36 658.745 582.09 656.883L583.425 653.51L560.102 646.865Z" fill="url(#paint16_linear_68_3422)"/>
<path d="M612.315 636.395C603.928 636.898 606.547 623.509 606.699 622.98L593.954 631.965C593.954 631.965 594.634 639.139 605.213 642.889C607.882 643.845 610.351 643.87 612.517 643.417C611.585 640.724 611.761 638.308 612.315 636.395Z" fill="url(#paint17_linear_68_3422)"/>
<path d="M628.536 632.368C625.413 630.203 621.861 632.368 621.861 632.368C617.68 635.111 614.582 636.269 612.315 636.395C611.786 638.308 611.585 640.724 612.517 643.417C617.202 642.41 620.552 639.013 622.013 637.276C622.542 636.647 623.473 636.546 624.103 637.049C624.758 637.553 625.388 638.258 625.262 639.013C625.035 640.472 626.723 640.926 626.849 640.397C626.975 639.868 626.269 636.722 626.269 636.722C626.269 636.722 629.67 640.12 630.979 641.429C632.314 642.738 633.977 641.429 633.977 641.429C633.977 641.429 631.659 634.533 628.536 632.368Z" fill="url(#paint18_linear_68_3422)"/>
<path d="M597.304 597.911L591.284 605.185C590.679 605.915 590.553 606.922 590.956 607.753C591.788 609.464 593.777 611.931 598.16 611.578C599.47 611.478 600.628 610.697 601.183 609.514L605.389 600.831L597.304 597.911Z" fill="url(#paint19_linear_68_3422)"/>
<path d="M608.109 616.134C585.39 597.383 573.174 602.266 573.174 602.266V602.266C573.174 602.266 542.168 622.879 550.077 639.466C551.211 641.832 552.722 643.518 554.46 644.625C556.248 639.793 558.817 636.823 561.16 635.036C559.724 642.813 559.522 648.25 559.522 648.25C571.688 657.311 583.425 653.485 583.425 653.485C586.146 644.046 605.867 627.007 607.933 623.534C609.998 620.06 608.109 616.134 608.109 616.134Z" fill="url(#paint20_linear_68_3422)"/>
<path d="M563.729 632.62C563.578 632.62 563.426 632.519 563.401 632.368C561.94 626.478 575.844 613.944 576.448 613.416C576.6 613.29 576.801 613.29 576.927 613.441C577.053 613.592 577.028 613.793 576.902 613.919C576.751 614.045 562.721 626.705 564.056 632.217C564.107 632.393 563.981 632.595 563.804 632.62C563.779 632.62 563.754 632.62 563.729 632.62Z" fill="url(#paint21_linear_68_3422)"/>
<path d="M585.466 632.972C585.466 632.972 568.439 639.566 564.283 634.608C564.006 634.281 563.829 633.878 563.704 633.476C560.908 634.86 556.928 637.93 554.435 644.651C563.376 650.364 578.69 641.479 582.821 638.837C583.501 638.409 584.307 638.258 585.113 638.409C586.7 638.736 589.47 639.214 590.956 638.988C593.123 638.66 596.246 646.312 599.772 643.946C599.797 643.971 596.775 630.657 585.466 632.972Z" fill="url(#paint22_linear_68_3422)"/>
<path d="M610.401 587.215C610.452 587.441 608.991 603.373 608.991 603.373L599.923 602.341L599.067 587.038C599.067 587.064 609.368 583.313 610.401 587.215Z" fill="url(#paint23_linear_68_3422)"/>
<path d="M601.409 590.235L601.233 598.314C601.233 598.415 601.233 598.516 601.258 598.616C601.409 599.22 602.114 601.309 604.205 600.454C606.094 599.699 607.832 599.019 609.117 599.271C609.696 599.371 610.074 599.9 610.023 600.479C609.897 601.913 609.52 605.185 608.789 607.954C608.638 608.508 608.084 608.86 607.505 608.759C605.767 608.457 602.14 607.702 599.344 606.419C598.966 606.243 598.714 605.89 598.689 605.462C598.563 603.449 598.11 597.307 597.732 595.596C597.379 594.01 595.289 593.255 594.382 593.004C594.08 592.928 593.853 592.727 593.702 592.45C593.198 591.493 592.392 589.253 595.188 587.995C595.767 587.743 596.019 587.038 595.742 586.46C595.188 585.302 594.81 583.515 596.926 582.256C599.092 580.973 600.931 582.005 601.963 582.911C602.392 583.263 602.996 583.263 603.424 582.911C603.676 582.709 604.004 582.634 604.432 582.835C605.011 583.112 605.716 582.81 605.943 582.181C606.371 580.998 607.353 579.664 609.62 579.815C613.676 580.067 614.607 584.396 613.827 587.089C613.071 589.782 608.688 589.253 606.422 588.196C604.684 587.391 602.694 588.649 601.837 589.304C601.586 589.555 601.434 589.883 601.409 590.235Z" fill="url(#paint24_linear_68_3422)"/>
<path d="M597.681 598.566C597.681 598.566 598.815 593.834 597.001 592.878C595.213 591.946 592.795 592.802 593.702 596.049C594.835 600.101 597.681 598.566 597.681 598.566Z" fill="url(#paint25_linear_68_3422)"/>
<path d="M601.913 608.055C603.651 611.125 601.283 613.34 601.157 613.34C601.057 613.34 600.326 610.672 600.402 610.572" fill="url(#paint26_linear_68_3422)"/>
<path d="M594.105 600.504C589.067 599.069 580.755 599.749 579.043 601.058C577.985 602.517 578.892 603.65 579.521 604.783C580.126 605.915 581.058 606.846 582.015 607.702C582.77 608.382 583.551 609.061 584.458 609.565C586.498 610.748 588.916 611.025 591.183 611.704C594.936 612.837 601.082 613.617 601.208 613.34C602.467 610.471 596.548 607.727 595.666 606.796C593.929 605.059 594.155 602.92 594.105 600.504" fill="url(#paint27_linear_68_3422)"/>
<path d="M599.596 612.384C599.545 614.221 599.52 616.033 599.47 617.871C599.47 618.349 600.225 618.349 600.225 617.871C600.276 616.033 600.301 614.221 600.351 612.384C600.377 611.905 599.621 611.905 599.596 612.384V612.384Z" fill="white"/>
<path d="M601.611 611.981C601.989 613.919 602.19 615.882 602.24 617.871C602.266 618.349 603.021 618.349 602.996 617.871C602.946 615.832 602.719 613.793 602.341 611.78C602.266 611.301 601.535 611.503 601.611 611.981V611.981Z" fill="white"/>
<path d="M593.779 646.063C593.805 646.063 593.83 646.063 593.855 646.063L629.599 646.013C630.481 646.013 631.187 645.311 631.187 644.408C631.187 643.53 630.456 642.803 629.574 642.828L593.83 642.878C592.948 642.878 592.242 643.58 592.242 644.483C592.267 645.336 592.948 646.013 593.779 646.063Z" fill="#59585A"/>
<path d="M661.738 613.793H631.968C629.775 613.793 627.784 615.047 626.826 617.028L613.063 646.038H650.042C651.454 646.038 652.739 645.185 653.243 643.856L663.906 617.003C664.562 615.473 663.427 613.793 661.738 613.793Z" fill="#59585A"/>
<ellipse cx="643.015" cy="629.384" rx="3.78795" ry="2.34311" transform="rotate(-72.1575 643.015 629.384)" fill="white"/>
<path d="M656.624 722.218C656.825 722.218 657.026 722.168 657.227 722.092C657.981 721.764 658.333 720.907 658.006 720.175L626.604 649.262C626.277 648.531 625.398 648.178 624.644 648.506C623.891 648.834 623.539 649.691 623.865 650.422L655.268 721.336C655.494 721.89 656.047 722.218 656.624 722.218Z" fill="white"/>
<path d="M621.253 722.218C621.831 722.218 622.383 721.89 622.634 721.336L654.037 650.422C654.363 649.691 654.012 648.834 653.258 648.506C652.504 648.178 651.625 648.531 651.299 649.262L619.896 720.175C619.57 720.907 619.921 721.764 620.675 722.092C620.851 722.193 621.052 722.218 621.253 722.218Z" fill="white"/>
<path d="M559.453 722.218C559.654 722.218 559.855 722.168 560.056 722.092C560.809 721.764 561.161 720.907 560.834 720.175L529.432 649.262C529.105 648.531 528.226 648.178 527.472 648.506C526.719 648.834 526.367 649.691 526.694 650.422L558.096 721.336C558.322 721.89 558.875 722.218 559.453 722.218Z" fill="white"/>
<path d="M524.081 722.218C524.659 722.218 525.211 721.89 525.463 721.336L556.865 650.422C557.192 649.691 556.84 648.834 556.086 648.506C555.333 648.178 554.453 648.531 554.127 649.262L522.724 720.175C522.398 720.907 522.749 721.764 523.503 722.092C523.679 722.193 523.88 722.218 524.081 722.218Z" fill="white"/>
<path d="M520.413 647.094C520.338 646.64 520.438 646.135 520.715 645.782C520.991 645.429 521.393 645.202 521.795 645.202H664.613C665.166 645.202 665.694 645.53 665.995 646.034C666.296 646.564 666.322 647.22 666.095 647.774L664.538 651.532C664.186 652.389 663.407 652.944 662.578 652.944H522.775C521.996 652.944 521.318 652.314 521.167 651.456L520.413 647.094Z" fill="white"/>
<path fill-rule="evenodd" clip-rule="evenodd" d="M633.829 526C614.697 514.954 590.233 521.509 579.188 540.641L486.547 701.098C475.502 720.23 482.057 744.694 501.188 755.739L562.719 791.264C581.851 802.31 606.314 795.755 617.36 776.623L710 616.166C721.046 597.034 714.491 572.57 695.359 561.525L633.829 526ZM630.356 534.896C615.05 526.06 595.48 531.304 586.643 546.609L495.443 704.571C486.607 719.877 491.851 739.447 507.156 748.284L566.192 782.368C581.497 791.205 601.068 785.961 609.904 770.655L701.104 612.693C708.877 599.229 705.754 582.464 694.471 572.609C690.733 576.203 685.024 576.94 680.465 574.308L637.866 549.714C633.126 546.977 630.919 541.341 632.5 536.134L630.356 534.896ZM525.817 749.544C526.208 748.867 527.074 748.635 527.752 749.026L555.549 765.075C556.227 765.466 556.459 766.332 556.068 767.009C555.677 767.686 554.811 767.918 554.133 767.527L526.336 751.478C525.658 751.087 525.426 750.221 525.817 749.544Z" fill="#E2E8F0"/>
<path fill-rule="evenodd" clip-rule="evenodd" d="M632.782 584.181L634.728 580.811L636.032 578.552L637.388 579.335L639.647 580.639L638.343 582.899L636.083 581.594L633.217 586.559L633.213 586.565C632.637 587.564 631.037 587.719 629.639 586.912C628.241 586.105 627.576 584.641 628.152 583.643C628.728 582.645 630.329 582.49 631.726 583.296C632.15 583.541 632.507 583.847 632.782 584.181Z" fill="white"/>
<path d="M628.912 592.489C628.869 597.695 625.172 600.901 621.085 603.18" stroke="white" stroke-width="2"/>
<defs>
<radialGradient id="paint0_angular_68_3422" cx="0" cy="0" r="1" gradientUnits="userSpaceOnUse" gradientTransform="translate(616.286 12) scale(12)">
<stop stop-color="#28FD9D"/>
<stop offset="1" stop-color="#B22EFF"/>
</radialGradient>
<radialGradient id="paint1_angular_68_3422" cx="0" cy="0" r="1" gradientUnits="userSpaceOnUse" gradientTransform="translate(624.286 653) scale(17)">
<stop stop-color="#28FD9D"/>
<stop offset="1" stop-color="#B22EFF"/>
</radialGradient>
<radialGradient id="paint2_angular_68_3422" cx="0" cy="0" r="1" gradientUnits="userSpaceOnUse" gradientTransform="translate(1274.86 780.95) scale(19)">
<stop stop-color="#28FD9D"/>
<stop offset="1" stop-color="#B22EFF"/>
</radialGradient>
<radialGradient id="paint3_angular_68_3422" cx="0" cy="0" r="1" gradientUnits="userSpaceOnUse" gradientTransform="translate(1107.95 587.282) rotate(-135) scale(31.7543 27.5)">
<stop stop-color="#28FD9D"/>
<stop offset="1" stop-color="#B22EFF"/>
</radialGradient>
<radialGradient id="paint4_angular_68_3422" cx="0" cy="0" r="1" gradientUnits="userSpaceOnUse" gradientTransform="translate(772.196 71.4569) rotate(45) scale(23.094 20)">
<stop stop-color="#28FD9D"/>
<stop offset="1" stop-color="#B22EFF"/>
</radialGradient>
<radialGradient id="paint5_angular_68_3422" cx="0" cy="0" r="1" gradientUnits="userSpaceOnUse" gradientTransform="translate(1287.32 106.646) rotate(135) scale(13.8564 12)">
<stop stop-color="#2EDEC4"/>
<stop offset="1" stop-color="#9F7AEA"/>
</radialGradient>
<radialGradient id="paint6_angular_68_3422" cx="0" cy="0" r="1" gradientUnits="userSpaceOnUse" gradientTransform="translate(17.3205 866.646) rotate(120) scale(13.8564 12)">
<stop stop-color="#2EDEC4"/>
<stop offset="1" stop-color="#9F7AEA"/>
</radialGradient>
<radialGradient id="paint7_angular_68_3422" cx="0" cy="0" r="1" gradientUnits="userSpaceOnUse" gradientTransform="translate(294.946 102.581) rotate(165) scale(30.5996 26.5)">
<stop stop-color="#28FD9D"/>
<stop offset="1" stop-color="#B22EFF"/>
</radialGradient>
<radialGradient id="paint8_angular_68_3422" cx="0" cy="0" r="1" gradientUnits="userSpaceOnUse" gradientTransform="translate(598.275 658.633) rotate(30) scale(66.0841 123.2)">
<stop stop-color="#9F7AEA"/>
<stop offset="1" stop-color="#2EDEC4"/>
</radialGradient>
<linearGradient id="paint9_linear_68_3422" x1="556.097" y1="675.615" x2="601.283" y2="675.615" gradientUnits="userSpaceOnUse">
<stop stop-color="#E55927"/>
<stop offset="0.9983" stop-color="#ED8F26"/>
</linearGradient>
<linearGradient id="paint10_linear_68_3422" x1="603.991" y1="695.34" x2="596.553" y2="708.294" gradientUnits="userSpaceOnUse">
<stop stop-color="#28347C"/>
<stop offset="1" stop-color="#161E3C"/>
</linearGradient>
<linearGradient id="paint11_linear_68_3422" x1="597.367" y1="708.212" x2="604.124" y2="708.212" gradientUnits="userSpaceOnUse">
<stop stop-color="#F2B375"/>
<stop offset="1" stop-color="#EA765E"/>
</linearGradient>
<linearGradient id="paint12_linear_68_3422" x1="603.945" y1="704.506" x2="640.087" y2="672.743" gradientUnits="userSpaceOnUse">
<stop stop-color="#28347C"/>
<stop offset="0.0305588" stop-color="#27337A"/>
<stop offset="0.4806" stop-color="#1F2857"/>
<stop offset="0.8172" stop-color="#182043"/>
<stop offset="1" stop-color="#161E3C"/>
</linearGradient>
<linearGradient id="paint13_linear_68_3422" x1="581.621" y1="705.11" x2="571.368" y2="739.76" gradientUnits="userSpaceOnUse">
<stop stop-color="#28347C"/>
<stop offset="1" stop-color="#161E3C"/>
</linearGradient>
<linearGradient id="paint14_linear_68_3422" x1="594.561" y1="723.53" x2="612.73" y2="723.53" gradientUnits="userSpaceOnUse">
<stop stop-color="#63C5E9"/>
<stop offset="1" stop-color="#3650A1"/>
</linearGradient>
<linearGradient id="paint15_linear_68_3422" x1="592.481" y1="714.022" x2="598.822" y2="714.022" gradientUnits="userSpaceOnUse">
<stop stop-color="#F2B375"/>
<stop offset="1" stop-color="#EA765E"/>
</linearGradient>
<linearGradient id="paint16_linear_68_3422" x1="594.973" y1="707.651" x2="598.782" y2="654.038" gradientUnits="userSpaceOnUse">
<stop stop-color="#28347C"/>
<stop offset="1" stop-color="#161E3C"/>
</linearGradient>
<linearGradient id="paint17_linear_68_3422" x1="627.826" y1="645.419" x2="609.876" y2="622.89" gradientUnits="userSpaceOnUse">
<stop offset="0.3201" stop-color="#93D0C5"/>
<stop offset="1" stop-color="#4199A6"/>
</linearGradient>
<linearGradient id="paint18_linear_68_3422" x1="611.858" y1="643.412" x2="633.98" y2="643.412" gradientUnits="userSpaceOnUse">
<stop stop-color="#F2B375"/>
<stop offset="1" stop-color="#EA765E"/>
</linearGradient>
<linearGradient id="paint19_linear_68_3422" x1="590.751" y1="611.635" x2="605.428" y2="611.635" gradientUnits="userSpaceOnUse">
<stop stop-color="#F2B375"/>
<stop offset="1" stop-color="#EA765E"/>
</linearGradient>
<linearGradient id="paint20_linear_68_3422" x1="594.208" y1="561.454" x2="528.243" y2="624.081" gradientUnits="userSpaceOnUse">
<stop offset="0.3201" stop-color="#93D0C5"/>
<stop offset="1" stop-color="#4199A6"/>
</linearGradient>
<linearGradient id="paint21_linear_68_3422" x1="559.729" y1="654.154" x2="603.176" y2="652.897" gradientUnits="userSpaceOnUse">
<stop offset="0.3201" stop-color="#93D0C5"/>
<stop offset="1" stop-color="#4199A6"/>
</linearGradient>
<linearGradient id="paint22_linear_68_3422" x1="420.79" y1="629.099" x2="415.416" y2="729.398" gradientUnits="userSpaceOnUse">
<stop stop-color="#F2B375"/>
<stop offset="1" stop-color="#EA765E"/>
</linearGradient>
<linearGradient id="paint23_linear_68_3422" x1="598.062" y1="578.973" x2="577.941" y2="598.258" gradientUnits="userSpaceOnUse">
<stop stop-color="#F2B375"/>
<stop offset="1" stop-color="#EA765E"/>
</linearGradient>
<linearGradient id="paint24_linear_68_3422" x1="596.8" y1="612.115" x2="618.369" y2="609.225" gradientUnits="userSpaceOnUse">
<stop stop-color="#28347C"/>
<stop offset="1" stop-color="#161E3C"/>
</linearGradient>
<linearGradient id="paint25_linear_68_3422" x1="592.256" y1="620.863" x2="607.168" y2="607.545" gradientUnits="userSpaceOnUse">
<stop stop-color="#F2B375"/>
<stop offset="1" stop-color="#EA765E"/>
</linearGradient>
<linearGradient id="paint26_linear_68_3422" x1="603.322" y1="609.727" x2="600.446" y2="608.981" gradientUnits="userSpaceOnUse">
<stop stop-color="#93D0C5"/>
<stop offset="0.7162" stop-color="#4199A6"/>
</linearGradient>
<linearGradient id="paint27_linear_68_3422" x1="611.821" y1="613.727" x2="607.118" y2="593.286" gradientUnits="userSpaceOnUse">
<stop stop-color="#93D0C5"/>
<stop offset="0.7162" stop-color="#4199A6"/>
</linearGradient>
</defs>
</svg>
