<svg width="64" height="65" viewBox="0 0 64 65" fill="none" xmlns="http://www.w3.org/2000/svg">
<circle cx="32" cy="32.4043" r="32" fill="#805AD5"/>
<path d="M50.2664 34.1966L52 23.1159L48.5503 24.4565C45.5918 18.0425 39.1637 13.5979 31.7099 13.5979C21.4503 13.5979 13.1334 22.0178 13.1334 32.4044C13.1334 42.791 21.4503 51.2109 31.7099 51.2109C38.2363 51.2109 43.9764 47.8035 47.2898 42.6502L43.5694 40.1596C43.5196 40.2374 43.4693 40.3148 43.4181 40.3917C42.9125 41.1494 42.3317 41.8621 41.6917 42.5098C41.0517 43.1577 40.3479 43.7456 39.5994 44.2576C38.845 44.7737 38.0388 45.2167 37.2033 45.5744C35.4658 46.3183 33.6176 46.6956 31.7099 46.6956C29.8021 46.6956 27.9539 46.3183 26.2164 45.5744C25.3809 45.2167 24.5747 44.7737 23.8203 44.2576C23.0719 43.7458 22.3679 43.1577 21.728 42.5098C21.0881 41.8619 20.5074 41.1494 20.0016 40.3917C19.4919 39.6279 19.0543 38.8117 18.7009 37.9659C17.9661 36.2068 17.5935 34.3358 17.5935 32.4044C17.5935 30.473 17.9661 28.602 18.7009 26.843C19.0543 25.9971 19.4919 25.1809 20.0016 24.4172C20.5072 23.6595 21.0881 22.9467 21.728 22.299C22.3679 21.6511 23.0719 21.0632 23.8203 20.5512C24.5747 20.0352 25.3809 19.5921 26.2164 19.2344C27.9539 18.4905 29.8021 18.1132 31.7099 18.1132C33.6176 18.1132 35.4658 18.4905 37.2033 19.2344C38.0388 19.5921 38.845 20.0352 39.5994 20.5512C40.3479 21.063 41.0519 21.6511 41.6917 22.299C42.3317 22.9467 42.9124 23.6595 43.4181 24.4172C43.7727 24.9485 44.0921 25.5054 44.3727 26.0798L41.6545 27.1362L50.2666 34.1966H50.2664Z" fill="white"/>
<path d="M37.8359 36.4315L33.9418 33.1223C34.0128 32.8958 34.0512 32.6548 34.0512 32.4045C34.0512 31.415 33.4523 30.5674 32.6016 30.2122V21.0485C32.6016 20.5498 32.2023 20.1455 31.7096 20.1455C31.217 20.1455 30.8176 20.5498 30.8176 21.0485V30.2124C29.9669 30.5675 29.368 31.4152 29.368 32.4046C29.368 33.7139 30.4164 34.7752 31.7096 34.7752C32.1012 34.7752 32.4702 34.6777 32.7947 34.5057L36.6889 37.8148C36.856 37.9569 37.0595 38.0263 37.2619 38.0263C37.5164 38.0263 37.7692 37.9166 37.9456 37.7037C38.2623 37.3217 38.2133 36.7521 37.8359 36.4315Z" fill="white"/>
</svg>
