<svg width="308" height="364" viewBox="0 0 308 364" fill="none" xmlns="http://www.w3.org/2000/svg">
<path fill-rule="evenodd" clip-rule="evenodd" d="M61.8213 93.9572C59.5497 85.4275 64.6151 76.6694 73.1413 74.3848L170.344 48.3394C178.889 46.0499 187.67 51.1286 189.946 59.6767L242.244 256.053C244.516 264.583 239.451 273.341 230.924 275.625L133.722 301.671C125.177 303.96 116.396 298.882 114.119 290.333L61.8213 93.9572Z" fill="white"/>
<path fill-rule="evenodd" clip-rule="evenodd" d="M69.4751 66.4194C56.6719 69.85 49.0739 83.0101 52.5045 95.8133L109.036 306.793C112.467 319.596 125.627 327.194 138.43 323.763L238.64 296.912C251.443 293.481 259.041 280.321 255.61 267.518L199.079 56.5389C195.648 43.7358 182.488 36.1378 169.685 39.5684L69.4751 66.4194ZM73.1387 74.3849C64.6125 76.6695 59.5471 85.4276 61.8187 93.9573L114.117 290.334C116.393 298.882 125.174 303.96 133.719 301.671L230.922 275.625C239.448 273.341 244.513 264.583 242.242 256.053L189.944 59.6768C187.667 51.1287 178.886 46.05 170.341 48.3396L73.1387 74.3849Z" fill="#EDF2F7"/>
<rect x="84.8857" y="110.322" width="101.634" height="101.634" rx="4" transform="rotate(-15 84.8857 110.322)" fill="#F6F9FB"/>
<rect x="115.118" y="241.591" width="105.99" height="23.1671" rx="4" transform="rotate(-15 115.118 241.591)" fill="#718096"/>
<rect x="123.743" y="270.131" width="105.99" height="23.1671" rx="4" transform="rotate(-15 123.743 270.131)" fill="#CBD5E0"/>
<circle opacity="0.6" cx="173.602" cy="237.376" r="23.3307" transform="rotate(-9 173.602 237.376)" fill="#DFFDF9"/>
<circle opacity="0.6" cx="173.375" cy="236.991" r="17.9545" transform="rotate(-9 173.375 236.991)" fill="#C0FBF2"/>
<mask id="path-8-outside-1_68_3433" maskUnits="userSpaceOnUse" x="166.074" y="222.023" width="49.9942" height="47.7819" fill="black">
<rect fill="white" x="166.074" y="222.023" width="49.9942" height="47.7819"/>
<path fill-rule="evenodd" clip-rule="evenodd" d="M199.367 240.157L180.711 238.057L188.473 255.151L192.882 249.082L203.235 256.604L205.31 253.748L194.957 246.226L199.367 240.157Z"/>
</mask>
<path fill-rule="evenodd" clip-rule="evenodd" d="M199.367 240.157L180.711 238.057L188.473 255.151L192.882 249.082L203.235 256.604L205.31 253.748L194.957 246.226L199.367 240.157Z" fill="#4F575D"/>
<path d="M180.711 238.057L181.046 235.076L175.794 234.485L177.979 239.297L180.711 238.057ZM199.367 240.157L201.794 241.92L204.822 237.752L199.702 237.176L199.367 240.157ZM188.473 255.151L185.741 256.391L187.871 261.083L190.9 256.914L188.473 255.151ZM192.882 249.082L194.645 246.655L192.218 244.892L190.455 247.319L192.882 249.082ZM203.235 256.604L201.472 259.031L203.899 260.794L205.662 258.367L203.235 256.604ZM205.31 253.748L207.737 255.511L209.501 253.084L207.074 251.321L205.31 253.748ZM194.957 246.226L192.53 244.463L190.767 246.89L193.194 248.653L194.957 246.226ZM180.375 241.038L199.031 243.138L199.702 237.176L181.046 235.076L180.375 241.038ZM191.204 253.911L183.442 236.817L177.979 239.297L185.741 256.391L191.204 253.911ZM190.455 247.319L186.046 253.388L190.9 256.914L195.309 250.845L190.455 247.319ZM204.999 254.177L194.645 246.655L191.119 251.509L201.472 259.031L204.999 254.177ZM202.883 251.984L200.808 254.84L205.662 258.367L207.737 255.511L202.883 251.984ZM193.194 248.653L203.547 256.175L207.074 251.321L196.721 243.799L193.194 248.653ZM196.939 238.394L192.53 244.463L197.384 247.989L201.794 241.92L196.939 238.394Z" fill="white" mask="url(#path-8-outside-1_68_3433)"/>
<path d="M61.321 92.0366C59.3198 84.5681 63.752 76.8914 71.2205 74.8902L172.147 47.847C179.616 45.8458 187.292 50.278 189.294 57.7465L191.666 66.6013L63.6936 100.891L61.321 92.0366Z" fill="#CBD5E0"/>
</svg>
