<svg width="264" height="306" viewBox="0 0 264 306" fill="none" xmlns="http://www.w3.org/2000/svg">
<path fill-rule="evenodd" clip-rule="evenodd" d="M120.522 40.6245C129.358 25.3191 148.929 20.0751 164.235 28.9116L223.27 62.9957C238.575 71.8322 243.819 91.4031 234.983 106.709L143.783 264.671C134.947 279.976 115.376 285.22 100.071 276.384L41.0352 242.3C25.7298 233.463 20.4858 213.892 29.3224 198.587L120.522 40.6245Z" fill="white"/>
<path fill-rule="evenodd" clip-rule="evenodd" d="M120.645 40.6101C129.481 25.3047 149.052 20.0607 164.357 28.8972L223.393 62.9813C238.698 71.8178 243.942 91.3887 235.106 106.694L143.906 264.656C135.07 279.962 115.499 285.206 100.193 276.369L41.1579 242.285C25.8526 233.449 20.6086 213.878 29.4451 198.572L120.645 40.6101Z" fill="white"/>
<path fill-rule="evenodd" clip-rule="evenodd" d="M120.645 40.6101C129.481 25.3047 149.052 20.0607 164.357 28.8972L223.393 62.9813C238.698 71.8178 243.942 91.3887 235.106 106.694L143.906 264.656C135.07 279.962 115.499 285.206 100.193 276.369L41.1579 242.285C25.8526 233.449 20.6086 213.878 29.4451 198.572L120.645 40.6101Z" fill="url(#paint0_angular_68_3479)" fill-opacity="0.9"/>
<path d="M128.975 202.965H115.333V163.068H111.461V202.965H97.9207C97.1362 202.965 96.4781 203.595 96.4781 204.402V205.462H130.291V204.276C130.317 203.57 129.709 202.965 128.975 202.965Z" fill="white"/>
<path d="M90.1002 165.215C90.1002 167.637 92.0743 169.604 94.504 169.604H130.873C133.303 169.604 135.277 167.637 135.277 165.215V161.231C135.277 158.81 133.303 156.843 130.873 156.843H94.504C92.0743 156.843 90.1002 158.81 90.1002 161.231V165.215Z" fill="url(#paint1_linear_68_3479)"/>
<path d="M134.905 200.919C134.905 200.919 145.887 208.822 143.973 214.133C143.973 214.133 131.959 208.948 130.523 204.87C129.062 200.793 130.775 198.981 130.775 198.981L134.905 200.919Z" fill="url(#paint2_linear_68_3479)"/>
<path d="M133.268 194.274L131.48 199.459C131.203 200.239 131.48 201.12 132.185 201.573C132.538 201.8 133.016 202.001 133.671 202.152C134.603 202.354 135.56 201.926 135.989 201.095L138.129 197.068L133.268 194.274Z" fill="url(#paint3_linear_68_3479)"/>
<path d="M115.813 147.636C115.813 147.636 138.356 151.537 148.028 160.472C157.7 169.407 139.162 197.873 139.162 197.873C139.162 197.873 136.114 197.848 132.437 194.702C132.437 194.702 143.419 173.283 133.948 167.041C123.294 160.019 111.028 158.433 111.028 158.433L115.612 148.341L115.813 147.636Z" fill="url(#paint4_linear_68_3479)"/>
<path d="M142.084 211.188C139.666 210.08 132.84 205.298 131.681 205.072C130.523 204.87 128.533 206.204 128.533 206.204C128.533 206.204 128.054 207.085 128.558 208.596C130.17 210.534 133.722 214.233 138.507 215.618C142.034 216.624 144.502 215.693 146.013 214.586C145.182 213.302 143.671 211.918 142.084 211.188Z" fill="url(#paint5_linear_68_3479)"/>
<path d="M138.507 215.618C133.722 214.233 130.17 210.533 128.558 208.595C128.911 209.627 129.717 210.961 131.455 212.497C135.737 216.348 143.948 217.732 145.686 217.48C147.096 217.254 146.945 215.97 146.038 214.561C144.502 215.693 142.034 216.65 138.507 215.618Z" fill="url(#paint6_linear_68_3479)"/>
<path d="M126.493 202.857C126.518 203.511 127.878 205.802 128.684 207.085C129.062 207.689 129.717 208.067 130.447 208.067C130.901 208.067 131.43 208.016 131.908 207.891C132.613 207.689 133.016 206.934 132.815 206.229L131.253 200.944L126.493 202.857Z" fill="url(#paint7_linear_68_3479)"/>
<path d="M94.1017 140.865C94.1017 140.865 89.0894 154.23 94.1017 158.308C99.1141 162.385 111.053 166.941 113.723 175.045C116.393 183.149 120.926 198.88 126.971 204.468C126.971 204.468 131.228 204.065 132.815 202.353C132.815 202.353 129.364 178.846 127.097 172.83C125.133 167.62 122.236 160.069 116.67 155.866C115.083 154.658 115.36 152.745 116.09 150.883L117.425 147.51L94.1017 140.865Z" fill="url(#paint8_linear_68_3479)"/>
<path d="M146.315 130.395C137.928 130.898 140.547 117.509 140.699 116.98L127.954 125.965C127.954 125.965 128.634 133.139 139.213 136.889C141.882 137.845 144.351 137.87 146.517 137.417C145.585 134.724 145.761 132.308 146.315 130.395Z" fill="url(#paint9_linear_68_3479)"/>
<path d="M162.536 126.368C159.413 124.203 155.861 126.368 155.861 126.368C151.68 129.111 148.582 130.269 146.315 130.395C145.786 132.308 145.585 134.724 146.517 137.417C151.202 136.41 154.552 133.013 156.013 131.276C156.542 130.647 157.473 130.546 158.103 131.049C158.758 131.553 159.388 132.258 159.262 133.013C159.035 134.472 160.723 134.926 160.849 134.397C160.975 133.868 160.269 130.722 160.269 130.722C160.269 130.722 163.67 134.12 164.979 135.429C166.314 136.738 167.977 135.429 167.977 135.429C167.977 135.429 165.659 128.533 162.536 126.368Z" fill="url(#paint10_linear_68_3479)"/>
<path d="M131.304 91.9115L125.284 99.1854C124.679 99.9153 124.553 100.922 124.956 101.753C125.788 103.464 127.777 105.931 132.16 105.578C133.47 105.478 134.628 104.697 135.183 103.514L139.389 94.8311L131.304 91.9115Z" fill="url(#paint11_linear_68_3479)"/>
<path d="M142.109 110.134C119.39 91.3829 107.174 96.2657 107.174 96.2657C107.174 96.2657 76.1683 116.879 84.0771 133.466C85.2106 135.832 86.7218 137.518 88.4597 138.625C90.2481 133.793 92.8172 130.823 95.1596 129.036C93.7239 136.813 93.5224 142.25 93.5224 142.25C105.688 151.311 117.425 147.485 117.425 147.485C120.146 138.046 139.867 121.007 141.933 117.534C143.998 114.06 142.109 110.134 142.109 110.134Z" fill="url(#paint12_linear_68_3479)"/>
<path d="M97.7287 126.62C97.5776 126.62 97.4265 126.519 97.4013 126.368C95.9404 120.478 109.844 107.944 110.448 107.416C110.6 107.29 110.801 107.29 110.927 107.441C111.053 107.592 111.028 107.793 110.902 107.919C110.751 108.045 96.7212 120.705 98.0562 126.217C98.1066 126.393 97.9806 126.595 97.8043 126.62C97.7791 126.62 97.7539 126.62 97.7287 126.62Z" fill="url(#paint13_linear_68_3479)"/>
<path d="M119.466 126.972C119.466 126.972 102.439 133.566 98.2829 128.608C98.0058 128.281 97.8295 127.878 97.7035 127.476C94.9077 128.86 90.9281 131.93 88.4346 138.651C97.3761 144.364 112.69 135.479 116.821 132.837C117.501 132.409 118.307 132.258 119.113 132.409C120.7 132.736 123.47 133.214 124.956 132.988C127.123 132.66 130.246 140.312 133.772 137.946C133.797 137.971 130.775 124.657 119.466 126.972Z" fill="url(#paint14_linear_68_3479)"/>
<path d="M144.401 81.2146C144.452 81.4411 142.991 97.3732 142.991 97.3732L133.923 96.3412L133.067 81.0384C133.067 81.0636 143.368 77.3134 144.401 81.2146Z" fill="url(#paint15_linear_68_3479)"/>
<path d="M135.409 84.235L135.233 92.3143C135.233 92.4149 135.233 92.5156 135.258 92.6163C135.409 93.2203 136.114 95.3094 138.205 94.4536C140.094 93.6986 141.832 93.019 143.117 93.2707C143.696 93.3714 144.074 93.8999 144.023 94.4788C143.897 95.9134 143.52 99.1854 142.789 101.954C142.638 102.508 142.084 102.86 141.505 102.759C139.767 102.457 136.14 101.702 133.344 100.419C132.966 100.243 132.714 99.8902 132.689 99.4623C132.563 97.4488 132.11 91.3075 131.732 89.596C131.379 88.0103 129.289 87.2553 128.382 87.0036C128.08 86.9281 127.853 86.7267 127.702 86.4499C127.198 85.4934 126.392 83.2534 129.188 81.9949C129.767 81.7432 130.019 81.0385 129.742 80.4596C129.188 79.3018 128.81 77.5148 130.926 76.2564C133.092 74.9727 134.931 76.0047 135.963 76.9108C136.392 77.2631 136.996 77.2631 137.424 76.9108C137.676 76.7094 138.004 76.6339 138.432 76.8353C139.011 77.1121 139.716 76.8101 139.943 76.1809C140.371 74.9979 141.353 73.664 143.62 73.815C147.676 74.0667 148.607 78.3957 147.827 81.0888C147.071 83.7819 142.688 83.2534 140.422 82.1963C138.684 81.3909 136.694 82.6493 135.837 83.3037C135.586 83.5554 135.434 83.8826 135.409 84.235Z" fill="url(#paint16_linear_68_3479)"/>
<path d="M131.681 92.5658C131.681 92.5658 132.815 87.834 131.001 86.8776C129.213 85.9464 126.795 86.8021 127.702 90.0489C128.835 94.1012 131.681 92.5658 131.681 92.5658Z" fill="url(#paint17_linear_68_3479)"/>
<path d="M135.913 102.055C137.651 105.125 135.283 107.34 135.157 107.34C135.057 107.34 134.326 104.672 134.402 104.572" fill="url(#paint18_linear_68_3479)"/>
<path d="M128.105 94.5039C123.067 93.0692 114.755 93.7488 113.043 95.0576C111.985 96.5174 112.892 97.65 113.521 98.7826C114.126 99.9152 115.058 100.846 116.015 101.702C116.77 102.382 117.551 103.061 118.458 103.565C120.498 104.748 122.916 105.025 125.183 105.704C128.936 106.837 135.082 107.617 135.208 107.34C136.467 104.471 130.548 101.727 129.666 100.796C127.929 99.0595 128.155 96.9201 128.105 94.5039Z" fill="url(#paint19_linear_68_3479)"/>
<path d="M133.596 106.384C133.545 108.221 133.52 110.033 133.47 111.871C133.47 112.349 134.225 112.349 134.225 111.871C134.276 110.033 134.301 108.221 134.351 106.384C134.377 105.905 133.621 105.905 133.596 106.384Z" fill="white"/>
<path d="M135.611 105.981C135.989 107.919 136.19 109.882 136.24 111.871C136.266 112.349 137.021 112.349 136.996 111.871C136.946 109.832 136.719 107.793 136.341 105.78C136.266 105.301 135.535 105.503 135.611 105.981Z" fill="white"/>
<path d="M127.779 140.063C127.805 140.063 127.83 140.063 127.855 140.063L163.599 140.013C164.481 140.013 165.187 139.311 165.187 138.408C165.187 137.53 164.456 136.803 163.574 136.828L127.83 136.878C126.948 136.878 126.242 137.58 126.242 138.483C126.267 139.336 126.948 140.013 127.779 140.063Z" fill="#59585A"/>
<path d="M195.738 107.793H165.968C163.775 107.793 161.784 109.047 160.826 111.028L147.063 140.038H184.042C185.454 140.038 186.739 139.185 187.243 137.856L197.906 111.003C198.562 109.473 197.427 107.793 195.738 107.793Z" fill="#59585A"/>
<ellipse cx="177.015" cy="123.384" rx="3.78795" ry="2.34311" transform="rotate(-72.1575 177.015 123.384)" fill="white"/>
<path d="M190.624 216.218C190.825 216.218 191.026 216.168 191.227 216.092C191.981 215.764 192.333 214.907 192.006 214.175L160.604 143.262C160.277 142.531 159.398 142.178 158.644 142.506C157.891 142.834 157.539 143.691 157.865 144.422L189.268 215.336C189.494 215.89 190.047 216.218 190.624 216.218Z" fill="white"/>
<path d="M155.253 216.218C155.831 216.218 156.383 215.89 156.634 215.336L188.037 144.422C188.363 143.691 188.012 142.834 187.258 142.506C186.504 142.178 185.625 142.531 185.299 143.262L153.896 214.175C153.57 214.907 153.921 215.764 154.675 216.092C154.851 216.193 155.052 216.218 155.253 216.218Z" fill="white"/>
<path d="M93.4527 216.218C93.6537 216.218 93.8546 216.168 94.0556 216.092C94.8093 215.764 95.161 214.907 94.8344 214.175L63.4319 143.262C63.1053 142.531 62.2261 142.178 61.4724 142.506C60.7187 142.834 60.367 143.691 60.6936 144.422L92.0961 215.336C92.3222 215.89 92.8749 216.218 93.4527 216.218Z" fill="white"/>
<path d="M58.0809 216.218C58.6587 216.218 59.2114 215.89 59.4626 215.336L90.8651 144.422C91.1917 143.691 90.84 142.834 90.0863 142.506C89.3327 142.178 88.4534 142.531 88.1268 143.262L56.7244 214.175C56.3978 214.907 56.7495 215.764 57.5031 216.092C57.679 216.193 57.88 216.218 58.0809 216.218Z" fill="white"/>
<path d="M54.4131 141.094C54.3378 140.64 54.4382 140.135 54.7146 139.782C54.9909 139.429 55.3929 139.202 55.7948 139.202H198.613C199.166 139.202 199.694 139.53 199.995 140.034C200.296 140.564 200.322 141.22 200.095 141.774L198.538 145.532C198.186 146.389 197.407 146.944 196.578 146.944H56.7746C55.9958 146.944 55.3175 146.314 55.1668 145.456L54.4131 141.094Z" fill="white"/>
<path fill-rule="evenodd" clip-rule="evenodd" d="M167.829 20C148.697 8.9543 124.233 15.5093 113.188 34.641L20.5473 195.098C9.50166 214.23 16.0567 238.694 35.1884 249.739L96.7189 285.264C115.851 296.31 140.314 289.755 151.36 270.623L244 110.166C255.046 91.034 248.491 66.5703 229.359 55.5247L167.829 20ZM164.356 28.8962C149.05 20.0596 129.48 25.3036 120.643 40.609L29.4434 198.571C20.6069 213.877 25.8509 233.447 41.1562 242.284L100.192 276.368C115.497 285.205 135.068 279.961 143.904 264.655L235.104 106.693C242.877 93.229 239.754 76.464 228.471 66.6094C224.733 70.2027 219.024 70.9404 214.465 68.3085L171.866 43.7139C167.126 40.977 164.919 35.3405 166.5 30.1342L164.356 28.8962ZM59.8172 243.544C60.2083 242.867 61.0743 242.635 61.7516 243.026L89.5493 259.075C90.2266 259.466 90.4587 260.332 90.0676 261.009C89.6766 261.686 88.8105 261.918 88.1332 261.527L60.3356 245.478C59.6582 245.087 59.4262 244.221 59.8172 243.544Z" fill="#E2E8F0"/>
<path fill-rule="evenodd" clip-rule="evenodd" d="M166.782 78.1812L168.728 74.8116L170.032 72.552L171.388 73.3348L173.647 74.6393L172.343 76.8989L170.083 75.5943L167.217 80.5587L167.213 80.5654C166.637 81.5637 165.037 81.7188 163.639 80.9119C162.241 80.105 161.576 78.6415 162.152 77.6432C162.728 76.6448 164.329 76.4897 165.726 77.2966C166.15 77.5415 166.507 77.8468 166.782 78.1812Z" fill="white"/>
<path d="M162.912 86.4893C162.869 91.695 159.172 94.9006 155.085 97.1802" stroke="white" stroke-width="2"/>
<defs>
<radialGradient id="paint0_angular_68_3479" cx="0" cy="0" r="1" gradientUnits="userSpaceOnUse" gradientTransform="translate(132.275 152.633) rotate(30) scale(66.0841 123.2)">
<stop stop-color="#9F7AEA"/>
<stop offset="1" stop-color="#2EDEC4"/>
</radialGradient>
<linearGradient id="paint1_linear_68_3479" x1="90.0973" y1="169.615" x2="135.283" y2="169.615" gradientUnits="userSpaceOnUse">
<stop stop-color="#E55927"/>
<stop offset="0.9983" stop-color="#ED8F26"/>
</linearGradient>
<linearGradient id="paint2_linear_68_3479" x1="137.991" y1="189.34" x2="130.553" y2="202.294" gradientUnits="userSpaceOnUse">
<stop stop-color="#28347C"/>
<stop offset="1" stop-color="#161E3C"/>
</linearGradient>
<linearGradient id="paint3_linear_68_3479" x1="131.367" y1="202.212" x2="138.124" y2="202.212" gradientUnits="userSpaceOnUse">
<stop stop-color="#F2B375"/>
<stop offset="1" stop-color="#EA765E"/>
</linearGradient>
<linearGradient id="paint4_linear_68_3479" x1="137.945" y1="198.506" x2="174.087" y2="166.743" gradientUnits="userSpaceOnUse">
<stop stop-color="#28347C"/>
<stop offset="0.0305588" stop-color="#27337A"/>
<stop offset="0.4806" stop-color="#1F2857"/>
<stop offset="0.8172" stop-color="#182043"/>
<stop offset="1" stop-color="#161E3C"/>
</linearGradient>
<linearGradient id="paint5_linear_68_3479" x1="115.621" y1="199.11" x2="105.368" y2="233.76" gradientUnits="userSpaceOnUse">
<stop stop-color="#28347C"/>
<stop offset="1" stop-color="#161E3C"/>
</linearGradient>
<linearGradient id="paint6_linear_68_3479" x1="128.561" y1="217.53" x2="146.73" y2="217.53" gradientUnits="userSpaceOnUse">
<stop stop-color="#63C5E9"/>
<stop offset="1" stop-color="#3650A1"/>
</linearGradient>
<linearGradient id="paint7_linear_68_3479" x1="126.481" y1="208.022" x2="132.822" y2="208.022" gradientUnits="userSpaceOnUse">
<stop stop-color="#F2B375"/>
<stop offset="1" stop-color="#EA765E"/>
</linearGradient>
<linearGradient id="paint8_linear_68_3479" x1="128.973" y1="201.651" x2="132.782" y2="148.038" gradientUnits="userSpaceOnUse">
<stop stop-color="#28347C"/>
<stop offset="1" stop-color="#161E3C"/>
</linearGradient>
<linearGradient id="paint9_linear_68_3479" x1="161.826" y1="139.419" x2="143.876" y2="116.89" gradientUnits="userSpaceOnUse">
<stop offset="0.3201" stop-color="#93D0C5"/>
<stop offset="1" stop-color="#4199A6"/>
</linearGradient>
<linearGradient id="paint10_linear_68_3479" x1="145.858" y1="137.412" x2="167.98" y2="137.412" gradientUnits="userSpaceOnUse">
<stop stop-color="#F2B375"/>
<stop offset="1" stop-color="#EA765E"/>
</linearGradient>
<linearGradient id="paint11_linear_68_3479" x1="124.751" y1="105.635" x2="139.428" y2="105.635" gradientUnits="userSpaceOnUse">
<stop stop-color="#F2B375"/>
<stop offset="1" stop-color="#EA765E"/>
</linearGradient>
<linearGradient id="paint12_linear_68_3479" x1="128.208" y1="55.454" x2="62.243" y2="118.081" gradientUnits="userSpaceOnUse">
<stop offset="0.3201" stop-color="#93D0C5"/>
<stop offset="1" stop-color="#4199A6"/>
</linearGradient>
<linearGradient id="paint13_linear_68_3479" x1="93.7295" y1="148.154" x2="137.176" y2="146.897" gradientUnits="userSpaceOnUse">
<stop offset="0.3201" stop-color="#93D0C5"/>
<stop offset="1" stop-color="#4199A6"/>
</linearGradient>
<linearGradient id="paint14_linear_68_3479" x1="-45.2097" y1="123.099" x2="-50.5835" y2="223.398" gradientUnits="userSpaceOnUse">
<stop stop-color="#F2B375"/>
<stop offset="1" stop-color="#EA765E"/>
</linearGradient>
<linearGradient id="paint15_linear_68_3479" x1="132.062" y1="72.9735" x2="111.941" y2="92.258" gradientUnits="userSpaceOnUse">
<stop stop-color="#F2B375"/>
<stop offset="1" stop-color="#EA765E"/>
</linearGradient>
<linearGradient id="paint16_linear_68_3479" x1="130.8" y1="106.115" x2="152.369" y2="103.225" gradientUnits="userSpaceOnUse">
<stop stop-color="#28347C"/>
<stop offset="1" stop-color="#161E3C"/>
</linearGradient>
<linearGradient id="paint17_linear_68_3479" x1="126.256" y1="114.863" x2="141.168" y2="101.545" gradientUnits="userSpaceOnUse">
<stop stop-color="#F2B375"/>
<stop offset="1" stop-color="#EA765E"/>
</linearGradient>
<linearGradient id="paint18_linear_68_3479" x1="137.322" y1="103.727" x2="134.446" y2="102.981" gradientUnits="userSpaceOnUse">
<stop stop-color="#93D0C5"/>
<stop offset="0.7162" stop-color="#4199A6"/>
</linearGradient>
<linearGradient id="paint19_linear_68_3479" x1="145.821" y1="107.727" x2="141.118" y2="87.2861" gradientUnits="userSpaceOnUse">
<stop stop-color="#93D0C5"/>
<stop offset="0.7162" stop-color="#4199A6"/>
</linearGradient>
</defs>
</svg>
