<svg width="64" height="65" viewBox="0 0 64 65" fill="none" xmlns="http://www.w3.org/2000/svg">
<circle cx="32" cy="32.0674" r="32" fill="#805AD5"/>
<path d="M18.2559 30.3224C18.2416 30.3081 18.2283 30.2948 18.2145 30.28C14.8678 26.774 14.9352 21.1323 18.3631 17.7044C21.791 14.2765 27.5823 14.1943 31.0914 17.7034L37.3535 23.9654C40.7012 27.3132 40.8758 32.718 37.7517 36.2699C36.8414 37.3049 35.2632 37.4065 34.2278 36.4956C33.197 35.5802 33.0918 34.0076 34.0021 32.9717C35.3919 31.392 35.3128 28.9868 33.8224 27.4965L27.5604 21.2344C25.9981 19.6721 23.456 19.6726 21.8937 21.2349C20.3313 22.7972 20.3375 25.2724 21.8263 26.8327C22.7785 27.8309 22.7417 29.4106 21.7441 30.3622C20.7607 31.3007 19.2112 31.2787 18.2554 30.3229L18.2559 30.3224Z" fill="white"/>
<path d="M33.416 45.4826L27.154 39.2205C23.8062 35.8728 23.6316 30.468 26.7557 26.916C27.666 25.8811 29.2442 25.7795 30.2796 26.6903C31.3079 27.6053 31.4156 29.1783 30.5053 30.2142C29.1155 31.7939 29.1947 34.1992 30.685 35.6895L36.947 41.9515C38.5094 43.5138 41.0514 43.5133 42.6133 41.9515C44.1751 40.3897 44.17 37.9135 42.6812 36.3532C41.729 35.3551 41.7657 33.7754 42.7634 32.8237C43.7605 31.8715 45.3555 31.9164 46.2924 32.9054C49.6391 36.4114 49.5722 42.0526 46.1438 45.481C42.7154 48.9095 36.9246 48.9912 33.4155 45.4821L33.416 45.4826Z" fill="white"/>
</svg>
