<svg width="311" height="152" viewBox="0 0 311 152" fill="none" xmlns="http://www.w3.org/2000/svg">
<g opacity="0.7">
<path d="M51.1472 52.0434C50.6091 51.9191 50.0721 52.2547 49.9479 52.7928C49.8236 53.3309 50.1591 53.8679 50.6973 53.9921L51.1472 52.0434ZM300.565 110.652L292.121 102.777L289.523 114.028L300.565 110.652ZM52.6476 54.4424C53.1857 54.5666 53.7227 54.2311 53.8469 53.693C53.9712 53.1548 53.6356 52.6179 53.0975 52.4936L52.6476 54.4424ZM56.9982 53.3942C56.4601 53.2699 55.9231 53.6055 55.7989 54.1436C55.6746 54.6817 56.0102 55.2187 56.5483 55.3429L56.9982 53.3942ZM60.449 56.2435C60.9871 56.3677 61.5241 56.0322 61.6483 55.494C61.7725 54.9559 61.437 54.419 60.8989 54.2947L60.449 56.2435ZM64.7995 55.1953C64.2614 55.071 63.7245 55.4066 63.6002 55.9447C63.476 56.4828 63.8115 57.0198 64.3496 57.144L64.7995 55.1953ZM68.2503 58.0446C68.7884 58.1688 69.3254 57.8333 69.4496 57.2951C69.5739 56.757 69.2384 56.22 68.7002 56.0958L68.2503 58.0446ZM72.6009 56.9964C72.0628 56.8721 71.5258 57.2076 71.4016 57.7458C71.2773 58.2839 71.6129 58.8209 72.151 58.9451L72.6009 56.9964ZM76.0517 59.8456C76.5898 59.9699 77.1268 59.6343 77.251 59.0962C77.3752 58.5581 77.0397 58.0211 76.5016 57.8969L76.0517 59.8456ZM80.4023 58.7974C79.8641 58.6732 79.3272 59.0087 79.2029 59.5469C79.0787 60.085 79.4142 60.6219 79.9524 60.7462L80.4023 58.7974ZM83.853 61.6467C84.3912 61.771 84.9281 61.4354 85.0523 60.8973C85.1766 60.3592 84.8411 59.8222 84.3029 59.698L83.853 61.6467ZM88.2036 60.5985C87.6655 60.4743 87.1285 60.8098 87.0043 61.3479C86.88 61.8861 87.2156 62.423 87.7537 62.5473L88.2036 60.5985ZM91.6544 63.4478C92.1925 63.572 92.7295 63.2365 92.8537 62.6984C92.9779 62.1603 92.6424 61.6233 92.1043 61.4991L91.6544 63.4478ZM96.005 62.3996C95.4668 62.2754 94.9299 62.6109 94.8056 63.149C94.6814 63.6872 95.0169 64.2241 95.5551 64.3483L96.005 62.3996ZM99.4557 65.2489C99.9939 65.3731 100.531 65.0376 100.655 64.4995C100.779 63.9613 100.444 63.4244 99.9056 63.3001L99.4557 65.2489ZM103.806 64.2007C103.268 64.0765 102.731 64.412 102.607 64.9501C102.483 65.4882 102.818 66.0252 103.356 66.1494L103.806 64.2007ZM107.257 67.05C107.795 67.1742 108.332 66.8387 108.456 66.3006C108.581 65.7624 108.245 65.2255 107.707 65.1012L107.257 67.05ZM111.608 66.0018C111.07 65.8775 110.533 66.2131 110.408 66.7512C110.284 67.2893 110.62 67.8263 111.158 67.9505L111.608 66.0018ZM115.058 68.8511C115.597 68.9753 116.134 68.6398 116.258 68.1016C116.382 67.5635 116.046 67.0266 115.508 66.9023L115.058 68.8511ZM119.409 67.8029C118.871 67.6786 118.334 68.0141 118.21 68.5523C118.085 69.0904 118.421 69.6274 118.959 69.7516L119.409 67.8029ZM122.86 70.6521C123.398 70.7764 123.935 70.4409 124.059 69.9027C124.183 69.3646 123.848 68.8276 123.31 68.7034L122.86 70.6521ZM127.21 69.6039C126.672 69.4797 126.135 69.8152 126.011 70.3534C125.887 70.8915 126.222 71.4284 126.76 71.5527L127.21 69.6039ZM130.661 72.4532C131.199 72.5775 131.736 72.2419 131.86 71.7038C131.985 71.1657 131.649 70.6287 131.111 70.5045L130.661 72.4532ZM135.012 71.405C134.474 71.2808 133.937 71.6163 133.812 72.1544C133.688 72.6926 134.024 73.2295 134.562 73.3538L135.012 71.405ZM138.462 74.2543C139.001 74.3785 139.538 74.043 139.662 73.5049C139.786 72.9668 139.451 72.4298 138.912 72.3056L138.462 74.2543ZM142.813 73.2061C142.275 73.0819 141.738 73.4174 141.614 73.9555C141.49 74.4937 141.825 75.0306 142.363 75.1549L142.813 73.2061ZM146.264 76.0554C146.802 76.1796 147.339 75.8441 147.463 75.306C147.587 74.7678 147.252 74.2309 146.714 74.1067L146.264 76.0554ZM150.614 75.0072C150.076 74.883 149.539 75.2185 149.415 75.7566C149.291 76.2947 149.626 76.8317 150.165 76.9559L150.614 75.0072ZM154.065 77.8565C154.603 77.9807 155.14 77.6452 155.265 77.1071C155.389 76.5689 155.053 76.032 154.515 75.9077L154.065 77.8565ZM158.416 76.8083C157.878 76.684 157.341 77.0196 157.216 77.5577C157.092 78.0958 157.428 78.6328 157.966 78.757L158.416 76.8083ZM161.867 79.6576C162.405 79.7818 162.942 79.4463 163.066 78.9081C163.19 78.37 162.855 77.8331 162.316 77.7088L161.867 79.6576ZM166.217 78.6094C165.679 78.4851 165.142 78.8207 165.018 79.3588C164.894 79.8969 165.229 80.4339 165.767 80.5581L166.217 78.6094ZM169.668 81.4586C170.206 81.5829 170.743 81.2474 170.867 80.7092C170.991 80.1711 170.656 79.6341 170.118 79.5099L169.668 81.4586ZM174.018 80.4104C173.48 80.2862 172.943 80.6217 172.819 81.1599C172.695 81.698 173.03 82.235 173.569 82.3592L174.018 80.4104ZM177.469 83.2597C178.007 83.384 178.544 83.0484 178.669 82.5103C178.793 81.9722 178.457 81.4352 177.919 81.311L177.469 83.2597ZM181.82 82.2115C181.282 82.0873 180.745 82.4228 180.621 82.961C180.496 83.4991 180.832 84.036 181.37 84.1603L181.82 82.2115ZM185.271 85.0608C185.809 85.1851 186.346 84.8495 186.47 84.3114C186.594 83.7733 186.259 83.2363 185.721 83.1121L185.271 85.0608ZM189.621 84.0126C189.083 83.8884 188.546 84.2239 188.422 84.762C188.298 85.3002 188.633 85.8371 189.171 85.9614L189.621 84.0126ZM193.072 86.8619C193.61 86.9861 194.147 86.6506 194.271 86.1125C194.396 85.5744 194.06 85.0374 193.522 84.9132L193.072 86.8619ZM197.423 85.8137C196.884 85.6895 196.347 86.025 196.223 86.5631C196.099 87.1013 196.435 87.6382 196.973 87.7624L197.423 85.8137ZM200.873 88.663C201.411 88.7872 201.948 88.4517 202.073 87.9136C202.197 87.3754 201.861 86.8385 201.323 86.7142L200.873 88.663ZM205.224 87.6148C204.686 87.4905 204.149 87.8261 204.025 88.3642C203.9 88.9023 204.236 89.4393 204.774 89.5635L205.224 87.6148ZM208.675 90.4641C209.213 90.5883 209.75 90.2528 209.874 89.7147C209.998 89.1765 209.663 88.6396 209.125 88.5153L208.675 90.4641ZM213.025 89.4159C212.487 89.2916 211.95 89.6272 211.826 90.1653C211.702 90.7034 212.037 91.2404 212.575 91.3646L213.025 89.4159ZM216.476 92.2652C217.014 92.3894 217.551 92.0539 217.675 91.5157C217.8 90.9776 217.464 90.4407 216.926 90.3164L216.476 92.2652ZM220.827 91.217C220.288 91.0927 219.752 91.4282 219.627 91.9664C219.503 92.5045 219.839 93.0415 220.377 93.1657L220.827 91.217ZM224.277 94.0662C224.816 94.1905 225.352 93.8549 225.477 93.3168C225.601 92.7787 225.265 92.2417 224.727 92.1175L224.277 94.0662ZM228.628 93.018C228.09 92.8938 227.553 93.2293 227.429 93.7675C227.304 94.3056 227.64 94.8425 228.178 94.9668L228.628 93.018ZM232.079 95.8673C232.617 95.9916 233.154 95.656 233.278 95.1179C233.402 94.5798 233.067 94.0428 232.529 93.9186L232.079 95.8673ZM236.429 94.8191C235.891 94.6949 235.354 95.0304 235.23 95.5685C235.106 96.1067 235.441 96.6436 235.979 96.7679L236.429 94.8191ZM239.88 97.6684C240.418 97.7926 240.955 97.4571 241.079 96.919C241.204 96.3809 240.868 95.8439 240.33 95.7197L239.88 97.6684ZM244.231 96.6202C243.693 96.496 243.156 96.8315 243.031 97.3696C242.907 97.9078 243.243 98.4447 243.781 98.569L244.231 96.6202ZM247.681 99.4695C248.22 99.5937 248.757 99.2582 248.881 98.7201C249.005 98.1819 248.669 97.645 248.131 97.5208L247.681 99.4695ZM252.032 98.4213C251.494 98.2971 250.957 98.6326 250.833 99.1707C250.708 99.7088 251.044 100.246 251.582 100.37L252.032 98.4213ZM255.483 101.271C256.021 101.395 256.558 101.059 256.682 100.521C256.806 99.983 256.471 99.4461 255.933 99.3218L255.483 101.271ZM259.833 100.222C259.295 100.098 258.758 100.434 258.634 100.972C258.51 101.51 258.845 102.047 259.383 102.171L259.833 100.222ZM263.284 103.072C263.822 103.196 264.359 102.86 264.483 102.322C264.608 101.784 264.272 101.247 263.734 101.123L263.284 103.072ZM267.635 102.023C267.097 101.899 266.56 102.235 266.435 102.773C266.311 103.311 266.647 103.848 267.185 103.972L267.635 102.023ZM271.086 104.873C271.624 104.997 272.161 104.661 272.285 104.123C272.409 103.585 272.074 103.048 271.535 102.924L271.086 104.873ZM275.436 103.825C274.898 103.7 274.361 104.036 274.237 104.574C274.113 105.112 274.448 105.649 274.986 105.773L275.436 103.825ZM278.887 106.674C279.425 106.798 279.962 106.463 280.086 105.924C280.21 105.386 279.875 104.849 279.337 104.725L278.887 106.674ZM283.237 105.626C282.699 105.501 282.162 105.837 282.038 106.375C281.914 106.913 282.249 107.45 282.788 107.574L283.237 105.626ZM286.688 108.475C287.226 108.599 287.763 108.264 287.888 107.725C288.012 107.187 287.676 106.65 287.138 106.526L286.688 108.475ZM291.039 107.427C290.501 107.302 289.964 107.638 289.839 108.176C289.715 108.714 290.051 109.251 290.589 109.375L291.039 107.427ZM294.49 110.276C295.028 110.4 295.565 110.065 295.689 109.527C295.813 108.988 295.478 108.451 294.939 108.327L294.49 110.276ZM298.84 109.228C298.302 109.104 297.765 109.439 297.641 109.977C297.517 110.515 297.852 111.052 298.39 111.177L298.84 109.228ZM50.6973 53.9921L52.6476 54.4424L53.0975 52.4936L51.1472 52.0434L50.6973 53.9921ZM56.5483 55.3429L60.449 56.2435L60.8989 54.2947L56.9982 53.3942L56.5483 55.3429ZM64.3496 57.144L68.2503 58.0446L68.7002 56.0958L64.7995 55.1953L64.3496 57.144ZM72.151 58.9451L76.0517 59.8456L76.5016 57.8969L72.6009 56.9964L72.151 58.9451ZM79.9524 60.7462L83.853 61.6467L84.3029 59.698L80.4023 58.7974L79.9524 60.7462ZM87.7537 62.5473L91.6544 63.4478L92.1043 61.4991L88.2036 60.5985L87.7537 62.5473ZM95.5551 64.3483L99.4557 65.2489L99.9056 63.3001L96.005 62.3996L95.5551 64.3483ZM103.356 66.1494L107.257 67.05L107.707 65.1012L103.806 64.2007L103.356 66.1494ZM111.158 67.9505L115.058 68.8511L115.508 66.9023L111.608 66.0018L111.158 67.9505ZM118.959 69.7516L122.86 70.6521L123.31 68.7034L119.409 67.8029L118.959 69.7516ZM126.76 71.5527L130.661 72.4532L131.111 70.5045L127.21 69.6039L126.76 71.5527ZM134.562 73.3538L138.462 74.2543L138.912 72.3056L135.012 71.405L134.562 73.3538ZM142.363 75.1549L146.264 76.0554L146.714 74.1067L142.813 73.2061L142.363 75.1549ZM150.165 76.9559L154.065 77.8565L154.515 75.9077L150.614 75.0072L150.165 76.9559ZM157.966 78.757L161.867 79.6576L162.316 77.7088L158.416 76.8083L157.966 78.757ZM165.767 80.5581L169.668 81.4586L170.118 79.5099L166.217 78.6094L165.767 80.5581ZM173.569 82.3592L177.469 83.2597L177.919 81.311L174.018 80.4104L173.569 82.3592ZM181.37 84.1603L185.271 85.0608L185.721 83.1121L181.82 82.2115L181.37 84.1603ZM189.171 85.9614L193.072 86.8619L193.522 84.9132L189.621 84.0126L189.171 85.9614ZM196.973 87.7624L200.873 88.663L201.323 86.7142L197.423 85.8137L196.973 87.7624ZM204.774 89.5635L208.675 90.4641L209.125 88.5153L205.224 87.6148L204.774 89.5635ZM212.575 91.3646L216.476 92.2652L216.926 90.3164L213.025 89.4159L212.575 91.3646ZM220.377 93.1657L224.277 94.0662L224.727 92.1175L220.827 91.217L220.377 93.1657ZM228.178 94.9668L232.079 95.8673L232.529 93.9186L228.628 93.018L228.178 94.9668ZM235.979 96.7679L239.88 97.6684L240.33 95.7197L236.429 94.8191L235.979 96.7679ZM243.781 98.569L247.681 99.4695L248.131 97.5208L244.231 96.6202L243.781 98.569ZM251.582 100.37L255.483 101.271L255.933 99.3218L252.032 98.4213L251.582 100.37ZM259.383 102.171L263.284 103.072L263.734 101.123L259.833 100.222L259.383 102.171ZM267.185 103.972L271.086 104.873L271.535 102.924L267.635 102.023L267.185 103.972ZM274.986 105.773L278.887 106.674L279.337 104.725L275.436 103.825L274.986 105.773ZM282.788 107.574L286.688 108.475L287.138 106.526L283.237 105.626L282.788 107.574ZM290.589 109.375L294.49 110.276L294.939 108.327L291.039 107.427L290.589 109.375Z" fill="#E2E8F0"/>
<rect x="19.1521" y="0.804932" width="54.3023" height="85.1391" rx="6" transform="rotate(13 19.1521 0.804932)" fill="white"/>
<rect opacity="0.8" x="19.1521" y="0.804932" width="54.3023" height="85.1391" rx="6" transform="rotate(13 19.1521 0.804932)" fill="#EDF2F7"/>
<rect x="92.3787" y="17.7106" width="54.3023" height="85.1391" rx="6" transform="rotate(13 92.3787 17.7106)" fill="white"/>
<rect opacity="0.7" x="92.3787" y="17.7106" width="54.3023" height="85.1391" rx="6" transform="rotate(13 92.3787 17.7106)" fill="#EDF2F7"/>
<rect x="165.605" y="34.6163" width="54.3023" height="85.1391" rx="6" transform="rotate(13 165.605 34.6163)" fill="white"/>
<rect opacity="0.6" x="165.605" y="34.6163" width="54.3023" height="85.1391" rx="6" transform="rotate(13 165.605 34.6163)" fill="#EDF2F7"/>
<rect x="238.832" y="51.522" width="54.3023" height="85.1391" rx="6" transform="rotate(13 238.832 51.522)" fill="white"/>
<rect opacity="0.5" x="238.832" y="51.522" width="54.3023" height="85.1391" rx="6" transform="rotate(13 238.832 51.522)" fill="#EDF2F7"/>
</g>
</svg>
