<svg width="20" height="20" viewBox="0 0 20 20" fill="none" xmlns="http://www.w3.org/2000/svg">
<g id="icon_mobile">
<rect id="Rectangle" width="20" height="20" fill="#D8D8D8" fill-opacity="0.01"/>
<path id="Fill 1" fill-rule="evenodd" clip-rule="evenodd" d="M6.66667 15.1667H14.1667V3.5H6.66667V15.1667ZM10.4167 18.5C9.725 18.5 9.16667 17.9417 9.16667 17.25C9.16667 16.5583 9.725 16 10.4167 16C11.1083 16 11.6667 16.5583 11.6667 17.25C11.6667 17.9417 11.1083 18.5 10.4167 18.5ZM13.75 1H7.08333C5.93333 1 5 1.93333 5 3.08333V17.25C5 18.4 5.93333 19.3333 7.08333 19.3333H13.75C14.9 19.3333 15.8333 18.4 15.8333 17.25V3.08333C15.8333 1.93333 14.9 1 13.75 1Z" fill="#805AD5"/>
</g>
</svg>
