<svg width="150" height="36" viewBox="0 0 150 36" fill="none" xmlns="http://www.w3.org/2000/svg">
<path fill-rule="evenodd" clip-rule="evenodd" d="M122.726 8.21649V10.7315H126.673V14.8865H122.726V28.7735H117.838V14.8865H115.304V10.7315H117.838V7.77949C117.838 3.15049 120.591 1.00049 124.754 1.00049C125.877 1.00049 126.746 1.18249 127.433 1.40049V5.51949C126.89 5.44649 126.456 5.41049 125.985 5.41049C123.813 5.41049 122.726 6.13849 122.726 8.21649ZM44.879 28.7731L46.2181 25.6381H55.9949L57.335 28.7731H62.585L51.9389 4.28009H50.3098L39.629 28.7731H44.879ZM47.9207 21.5931L51.1065 13.4651L54.2932 21.5931H47.9207ZM73.7741 29.2109C78.4449 29.2109 81.9933 25.9309 81.9933 20.8279V10.7309H77.1049V21.2289C77.1049 23.3429 75.6208 24.6909 73.7741 24.6909C71.8549 24.6909 70.3708 23.3429 70.3708 21.2289V10.7309H65.4823V20.8279C65.4823 25.9309 69.0307 29.2109 73.7741 29.2109ZM100.023 24.655V28.773C99.0092 29.029 97.9245 29.211 96.6569 29.211C92.2393 29.211 89.4877 27.06 89.4877 22.432V14.886H86.6635V10.731H89.4877V6.17599H94.3751V10.731H99.4443V14.886H94.3751V21.994C94.3751 24.072 95.4619 24.8 97.7069 24.8C98.181 24.8 98.8009 24.7511 99.5263 24.6938C99.687 24.6811 99.8529 24.668 100.023 24.655ZM110.343 28.7735H105.455V10.7315H110.343V28.7735ZM140.939 30.3402L149.521 10.7312H144.379L139.708 22.5772L135.327 10.7312H130.15L137.029 27.6802L136.486 28.9192C135.581 30.9602 134.313 31.3612 132.756 31.3612C132.276 31.3612 131.721 31.311 131.071 31.2523C130.937 31.2401 130.799 31.2277 130.656 31.2152V35.3342C131.598 35.5892 132.792 35.7722 133.806 35.7722C137.173 35.7722 139.311 34.0582 140.939 30.3402ZM111.031 4.26239C111.031 6.00339 109.63 7.41539 107.899 7.41539C106.169 7.41539 104.766 6.00339 104.766 4.26239C104.766 2.52039 106.169 1.10939 107.899 1.10939C109.63 1.10939 111.031 2.52039 111.031 4.26239ZM8.44787 1.79609H25.3393L28.5816 7.45209L25.983 11.9881L22.7406 6.33209H11.0465L5.20151 16.5281L11.0465 26.7201H17.5313L20.134 31.2561H8.44787L0.000183105 16.5281L8.44787 1.79609Z" fill="black"/>
<path fill-rule="evenodd" clip-rule="evenodd" d="M33.7868 16.5282L25.3392 31.2562L16.8875 16.5242L22.0928 16.5282L25.3392 22.1882L31.1842 11.9922L33.7868 16.5282Z" fill="#00B398"/>
</svg>
